<?xml version="1.0" encoding="utf-8"?>
<!-- Generator: Adobe Illustrator 16.0.0, SVG Export Plug-In . SVG Version: 6.00 Build 0)  -->
<!DOCTYPE svg PUBLIC "-//W3C//DTD SVG 1.1//EN" "http://www.w3.org/Graphics/SVG/1.1/DTD/svg11.dtd">
<svg version="1.1" id="Layer_1" xmlns="http://www.w3.org/2000/svg" xmlns:xlink="http://www.w3.org/1999/xlink" x="0px" y="0px"
	 width="1000px" height="800px" viewBox="0 0 1000 800" enable-background="new 0 0 1000 800" xml:space="preserve">
<rect x="-3.5" y="-8.5" width="1007" height="817"/>
<g>
	<path fill="#FFFFFF" d="M641.901,587.306c-10.869,5.219-21.941,9.515-33.128,12.942c7.334-10.276,22.985-34.193,36.049-67.545
		c16.069-41.031,30.984-104.624,10.777-174.569c-1.271-4.41-4.685-9.733-18.049-18.377c5.37-12.004,8.085-24.8,8.01-38.167
		c-0.162-26.986-8.574-51.69-23.959-71.286l6.69-9.175l-5.045,1.013c3.468-7.039,3.604-11.698,3.587-12.708l-0.557-31.584
		l-13.908,27.854c-0.352,0.51-2.57,3.504-8.053,7.121c-24.502-19.767-58.217-30.209-98.018-30.209
		c-39.804,0-73.517,10.441-98.015,30.211c-5.485-3.619-7.707-6.614-8.057-7.123l-6.999-14.012
		c13.651-10.899,28.734-20.44,45.153-28.321c65.83-31.603,139.052-29.833,200.529-1.414
		c-74.929-44.336-169.899-51.645-254.281-11.134C250.347,215.285,193.748,376.4,258.212,510.682
		c33.374,69.521,92.659,118.205,160.71,140.059c3.524,6.477,9.899,16.17,18.701,21.433c1.494,0.893,3.16,1.331,4.815,1.331
		c2.291,0,4.563-0.836,6.337-2.458c0.364-0.333,0.693-0.693,0.994-1.069c1.84,1.685,3.825,3.221,5.956,4.492
		c1.494,0.895,3.161,1.332,4.816,1.332c2.289,0,4.56-0.834,6.335-2.459c1.312-1.199,2.193-2.714,2.661-4.341
		c2.121,2.067,4.444,3.954,6.976,5.468c1.493,0.895,3.16,1.332,4.816,1.332c2.289,0,4.561-0.834,6.335-2.459
		c2.765-2.525,3.715-6.415,2.548-9.896c11.563,0.488,23.201,0.238,34.849-0.782c-1.604,3.667-0.727,7.962,2.249,10.679
		c1.773,1.625,4.046,2.459,6.334,2.459c1.655,0,3.324-0.438,4.815-1.332c2.533-1.514,4.854-3.4,6.978-5.468
		c0.467,1.627,1.349,3.142,2.659,4.341c1.775,1.625,4.048,2.459,6.336,2.459c1.654,0,3.323-0.438,4.817-1.332
		c2.13-1.271,4.114-2.808,5.956-4.492c0.3,0.376,0.628,0.736,0.992,1.069c1.776,1.622,4.049,2.458,6.338,2.458
		c1.656,0,3.321-0.438,4.814-1.331c11.875-7.101,19.327-22.245,21.32-26.688c6.52-2.529,12.992-5.313,19.402-8.39
		c84.38-40.503,138.068-119.18,150.342-205.376C752.139,497.463,707.728,555.703,641.901,587.306z M645.677,361.002
		c37.563,130.013-49.114,238.359-49.114,238.359c29.934-134.69,21.333-217.99,2.714-255.782c3.801-2.15,7.347-4.7,10.563-7.611
		C625.949,344.21,643.834,354.612,645.677,361.002z M528.42,302.049c4.448,19.035,21.55,33.259,41.923,33.259
		c23.744,0,43.059-19.316,43.059-43.06c0-17.367-10.353-32.33-25.196-39.132c3.609-1.206,6.982-2.426,10.091-3.701
		c13.982,9.148,23.256,24.914,23.256,42.833c0,28.234-22.973,51.205-51.209,51.205c-19.032,0-35.641-10.457-44.462-25.911
		C526.984,312.276,527.88,307.018,528.42,302.049z M526.771,279.631c1.075-0.994,2.229-1.991,3.465-2.986
		c-0.897,2.294-1.612,4.677-2.107,7.142c-0.229-1.045-0.491-2.048-0.823-2.964C527.16,280.426,526.976,280.028,526.771,279.631z
		 M571.611,260.158c0,0.003,0,0.003,0,0.003c0.009,0.005,0.022,0.011,0.032,0.018c0,0,0,0,0,0.003
		c0.013,0.004,0.022,0.01,0.03,0.015c0,0,0.003,0,0.008,0.002c0.007,0.004,0.015,0.01,0.023,0.016v0.002
		c0.012,0.005,0.023,0.009,0.031,0.015c0.003,0.002,0.003,0.002,0.007,0.004c0.007,0.004,0.013,0.011,0.024,0.014
		c0.004,0.002,0.004,0.005,0.008,0.005c0.012,0.005,0.015,0.01,0.026,0.015c0.003,0.003,0.006,0.003,0.006,0.005
		c0.009,0.001,0.016,0.008,0.025,0.012c0,0.002,0,0.002,0.006,0.006c0.01,0.002,0.017,0.007,0.021,0.012
		c0.004,0,0.01,0.003,0.015,0.005c0.005,0.006,0.015,0.008,0.02,0.014c0.004,0.002,0.008,0.004,0.013,0.006
		c0.008,0.005,0.012,0.008,0.02,0.014l0.011,0.007c0.008,0.003,0.016,0.008,0.019,0.008c0.006,0.004,0.006,0.007,0.014,0.01
		l0.022,0.01c0.003,0.003,0.003,0.004,0.009,0.008c0.006,0.001,0.018,0.01,0.021,0.012c0.004,0.003,0.012,0.005,0.016,0.009
		c0.006,0.004,0.009,0.006,0.018,0.012c0.004,0.003,0.007,0.004,0.011,0.004c0.007,0.005,0.011,0.009,0.019,0.014
		c0.004,0,0.011,0.004,0.017,0.008c0,0.003,0.01,0.007,0.016,0.009c0.004,0.003,0.008,0.006,0.011,0.008
		c0.008,0.003,0.016,0.009,0.022,0.013c0.002,0.002,0.008,0.006,0.012,0.007c0.006,0.003,0.014,0.009,0.021,0.011
		c0,0.002,0.009,0.008,0.012,0.01c0.007,0.003,0.015,0.004,0.015,0.008c0.008,0.004,0.01,0.008,0.014,0.009
		c0.009,0.004,0.014,0.008,0.021,0.014c0.006,0,0.009,0.001,0.013,0.005c0.008,0.004,0.012,0.006,0.02,0.012
		c0.007,0.002,0.009,0.004,0.013,0.007c0.003,0.004,0.017,0.008,0.022,0.016l0.008,0.001c0.007,0.005,0.012,0.011,0.021,0.012
		c0.005,0.003,0.008,0.006,0.008,0.008c0.008,0.001,0.018,0.008,0.025,0.013c0,0.003,0.006,0.003,0.006,0.004
		c0.009,0.005,0.016,0.011,0.024,0.015c0.003,0,0.007,0.004,0.011,0.006c0.01,0.004,0.014,0.01,0.021,0.014
		c0.003,0.003,0.006,0.003,0.011,0.005c0.003,0.005,0.015,0.011,0.022,0.012c0.003,0.003,0.003,0.003,0.005,0.005l0.022,0.016
		c0.005,0,0.005,0.003,0.008,0.004c0.008,0.004,0.019,0.011,0.025,0.016l0.009,0.004c0.007,0.006,0.017,0.011,0.024,0.017v0.002
		c0.023,0.013,0.041,0.023,0.063,0.035c0,0.003,0,0.003,0.003,0.003c0.013,0.004,0.02,0.012,0.03,0.017c0,0.004,0,0.004,0.002,0.004
		c0.01,0.006,0.019,0.012,0.032,0.017c0.027,0.023,0.058,0.041,0.09,0.061c0.208,0.131,0.415,0.265,0.616,0.404l2.608-3.875
		c1.022,0.166,2.032,0.373,3.023,0.625l-3.731,4.647c0.614,0.492,1.208,1.011,1.779,1.553l5.012-5.269
		c1.043,0.369,2.063,0.787,3.059,1.25l-6.432,5.715c0,0.003,0.002,0.003,0.002,0.006c0.006,0.005,0.009,0.01,0.017,0.019
		c0.005,0.002,0.008,0.006,0.01,0.01c0.004,0.005,0.008,0.009,0.014,0.015c0.002,0.005,0.006,0.006,0.009,0.012
		c0.008,0.006,0.011,0.01,0.015,0.018c0.004,0.002,0.004,0.005,0.012,0.01c0.004,0.005,0.009,0.013,0.016,0.018
		c0.004,0.002,0.007,0.007,0.009,0.013c0.004,0.004,0.008,0.009,0.008,0.013c0.007,0.005,0.012,0.01,0.02,0.015
		c0.003,0.003,0.006,0.008,0.01,0.013c0,0.005,0.009,0.011,0.012,0.015c0.006,0.006,0.012,0.008,0.014,0.012
		c0.003,0.005,0.003,0.008,0.007,0.013c0.009,0.004,0.012,0.01,0.019,0.016c0.005,0.004,0.005,0.008,0.009,0.014
		c0.007,0.003,0.009,0.007,0.015,0.015c0.002,0.003,0.006,0.008,0.009,0.01c0.007,0.005,0.01,0.01,0.012,0.014
		c0.007,0.007,0.011,0.012,0.011,0.015c0.009,0.004,0.012,0.012,0.016,0.014c0.004,0.005,0.007,0.008,0.011,0.015
		c0.002,0.004,0.006,0.01,0.016,0.016c0.003,0.005,0.005,0.007,0.005,0.009c0.006,0.008,0.016,0.013,0.02,0.021
		c0.004,0.002,0.004,0.004,0.011,0.008c0.004,0.007,0.007,0.012,0.013,0.018c0,0.002,0.006,0.004,0.006,0.006
		c0.006,0.009,0.012,0.014,0.014,0.021c0.006,0.004,0.008,0.008,0.014,0.008c0.005,0.009,0.009,0.014,0.017,0.021
		c0,0.003,0,0.007,0.008,0.008c0.003,0.008,0.011,0.015,0.019,0.024c0,0,0,0.001,0.002,0.005c0.006,0.005,0.015,0.015,0.018,0.022
		l0.005,0.002c0.006,0.007,0.015,0.018,0.022,0.025c0,0.004,0,0.004,0.003,0.004c0,0.005,0.012,0.016,0.018,0.027
		c0.004,0,0.004,0,0.004,0c0.348,0.414,0.681,0.837,1.009,1.271l7.968-5.96c1.014,0.596,1.995,1.24,2.941,1.931l-9.576,5.976
		c0.417,0.665,0.8,1.352,1.163,2.052l11.226-5.751c0.924,0.83,1.802,1.705,2.632,2.625l-12.873,5.271
		c0.244,0.6,0.473,1.209,0.671,1.83c0.004,0,0.004,0.003,0.004,0.003c0.004,0.01,0.008,0.02,0.015,0.032c0,0,0,0.003,0,0.004
		c0,0.011,0.005,0.021,0.008,0.028l0.004,0.01c0,0.009,0.009,0.015,0.009,0.021c0.003,0.008,0.003,0.013,0.003,0.018
		c0,0.007,0.003,0.012,0.007,0.017c0.002,0.019,0.011,0.038,0.019,0.056v0.002c0.023,0.066,0.039,0.131,0.063,0.196l14.463-4.525
		c0.76,1.048,1.462,2.139,2.104,3.269l-15.959,3.54c0.048,0.213,0.093,0.428,0.136,0.643v0.005l0.003,0.033c0,0.002,0,0.002,0,0.005
		c0.005,0.01,0.005,0.018,0.009,0.028c0.004,0.002,0.004,0.005,0.004,0.007c0,0.01,0.003,0.018,0.003,0.027
		c0,0.003,0.004,0.008,0.004,0.01c0,0.011,0,0.019,0.004,0.03c0,0,0,0.006,0,0.01c0.002,0.007,0.006,0.013,0.006,0.018l0.003,0.021
		c0,0.004,0,0.011,0.007,0.015v0.018c0.002,0.008,0.002,0.016,0.002,0.022l0.007,0.019v0.01c0.004,0.01,0.004,0.02,0.004,0.031
		c0,0.002,0,0.004,0.004,0.009c0.003,0.019,0.003,0.039,0.011,0.06v0.002l0.011,0.037c0,0.004,0,0.006,0,0.006l0.006,0.063
		c0.006,0,0.006,0,0.006,0c0,0.015,0.004,0.028,0.004,0.041v0.004l0.006,0.038c0,0,0.003,0.003,0.003,0.005
		c0,0.019,0.005,0.042,0.008,0.059v0.01c0.008,0.01,0.008,0.021,0.008,0.031c0,0.001,0.005,0.007,0.005,0.01l0.003,0.017v0.023
		c0.004,0.005,0.007,0.009,0.007,0.015c0,0.006,0,0.013,0.004,0.018v0.021c0,0.005,0.004,0.011,0.004,0.017v0.013
		c0.005,0.011,0.005,0.02,0.005,0.028c0.003,0.004,0.003,0.008,0.005,0.012c0,0.008,0,0.015,0.004,0.025v0.01
		c0,0.008,0.004,0.018,0.004,0.025v0.008c0,0.01,0.004,0.021,0.004,0.03c0,0.003,0.003,0.004,0.003,0.008
		c0.041,0.242,0.078,0.483,0.112,0.729l17.311-2.322c0.521,1.219,0.973,2.474,1.356,3.758l-18.455,0.913
		c0.005,0.106,0.013,0.209,0.013,0.316v0.007c0,0.004,0.004,0.008,0.004,0.014v0.016c0.006,0.283,0.016,0.565,0.019,0.849v0.5
		c-0.003,0.059-0.007,0.119-0.007,0.18v0.088c0,0.002,0,0.002,0,0.002v0.028c0,0,0,0,0,0.001c0,0.018,0,0.039-0.006,0.057v0.111
		c-0.003,0.062-0.003,0.125-0.003,0.191l19.364,0.653c0.236,1.332,0.4,2.686,0.483,4.064l-20.025-2.366
		c-0.009,0.066-0.019,0.132-0.026,0.201v0.004c-0.004,0.01-0.004,0.021-0.008,0.033v0.028c-0.004,0.008-0.008,0.016-0.008,0.022
		v0.016c0,0.008-0.002,0.013-0.002,0.019v0.016c0,0.009-0.004,0.015-0.004,0.023v0.01c0,0.01-0.003,0.02-0.003,0.03v0.008
		c-0.003,0.011-0.003,0.02-0.003,0.032c0,0,0,0,0,0.002c-0.009,0.008-0.009,0.022-0.009,0.035c0,0,0,0-0.004,0.001v0.033
		c0,0.002,0,0.002,0,0.002c-0.077,0.525-0.162,1.046-0.264,1.561c0,0.003,0,0.003,0,0.003c0,0.01-0.003,0.021-0.003,0.033
		c0,0,0,0.002-0.004,0.005c0,0.01,0,0.023-0.003,0.03v0.011c-0.004,0.007-0.009,0.012-0.009,0.02c0,0.007-0.004,0.013-0.004,0.017
		c0,0.005,0,0.013-0.003,0.02c-0.003,0.005-0.003,0.008-0.003,0.017v0.011c0,0.008-0.008,0.021-0.008,0.031c0,0,0,0,0,0.002
		c-0.004,0.019-0.01,0.036-0.014,0.053l20.411,4.188c-0.081,1.41-0.252,2.796-0.492,4.158l-20.49-6.057
		c-0.13,0.454-0.276,0.902-0.434,1.349c-0.004,0.003-0.004,0.006-0.004,0.006c-0.005,0.012-0.008,0.022-0.012,0.03
		c-0.002,0.002-0.002,0.008-0.002,0.011l-0.007,0.02c0,0.006-0.005,0.014-0.005,0.019c0,0.003-0.007,0.008-0.007,0.014
		c-0.008,0.006-0.008,0.012-0.012,0.023v0.012c0,0.005-0.006,0.014-0.011,0.02v0.01l-0.011,0.029c-0.004,0-0.004,0.002-0.004,0.008
		c-0.004,0.01-0.004,0.02-0.012,0.027v0.008c-0.006,0.02-0.017,0.039-0.025,0.063c-0.004,0.013-0.007,0.025-0.014,0.036
		c-0.063,0.184-0.134,0.366-0.207,0.552l20.275,7.92c-0.415,1.357-0.911,2.676-1.48,3.958l-19.742-9.723
		c-0.164,0.334-0.336,0.662-0.511,0.984c0,0,0,0,0,0.002c-0.008,0.01-0.012,0.02-0.017,0.031l-0.007,0.002
		c-0.004,0.01-0.007,0.02-0.009,0.029c0,0,0,0.004-0.006,0.004l-0.014,0.027c0,0.004,0,0.004,0,0.006
		c-0.004,0.006-0.011,0.017-0.018,0.027l-0.004,0.005c-0.008,0.011-0.008,0.02-0.016,0.028l-0.004,0.005
		c-0.002,0.011-0.01,0.02-0.018,0.027c0,0.003,0,0.003,0,0.004c-0.003,0.01-0.007,0.017-0.014,0.026c0,0.002,0,0.002-0.004,0.006
		l-0.016,0.027c0,0.002,0,0.004-0.003,0.008c-0.004,0.007-0.013,0.014-0.013,0.024l-0.005,0.005
		c-0.004,0.01-0.007,0.018-0.015,0.027l-0.005,0.006c0,0.01-0.006,0.017-0.011,0.022l-0.003,0.008
		c-0.008,0.01-0.013,0.017-0.016,0.024c0,0.005,0,0.009-0.004,0.011c-0.003,0.01-0.011,0.015-0.013,0.025
		c-0.004,0.002-0.004,0.004-0.008,0.007c0,0.007-0.008,0.015-0.012,0.025l-0.003,0.004c-0.003,0.009-0.009,0.019-0.016,0.025
		l-0.003,0.005c-0.004,0.01-0.008,0.018-0.014,0.027c-0.006,0.001-0.006,0.004-0.006,0.005c-0.008,0.011-0.01,0.02-0.017,0.029
		c0,0.003,0,0.003,0,0.005c-0.009,0.011-0.012,0.017-0.016,0.027c-0.003,0.004-0.003,0.004-0.003,0.004
		c-0.005,0.009-0.01,0.017-0.021,0.029c0,0,0,0,0,0.004l-0.015,0.025v0.004c-0.009,0.011-0.013,0.023-0.016,0.031
		c-0.005,0-0.005,0-0.005,0.002c-0.08,0.136-0.159,0.274-0.24,0.412l18.935,11.407c-0.722,1.213-1.516,2.377-2.372,3.491
		l-17.867-12.933c-0.173,0.24-0.349,0.478-0.529,0.708c0,0,0,0,0,0.004c-0.028,0.037-0.062,0.075-0.088,0.116h-0.004
		c-0.271,0.348-0.554,0.69-0.839,1.022l16.567,14.26c-0.979,1.001-2.018,1.943-3.108,2.823l-15.074-15.36
		c-0.563,0.553-1.146,1.08-1.75,1.582l13.428,16.2c-1.166,0.733-2.379,1.403-3.631,1.999l-11.673-16.772
		c-0.108,0.074-0.215,0.146-0.32,0.219v0.004c-0.042,0.025-0.081,0.053-0.121,0.078c0,0.003-0.004,0.003-0.008,0.003
		c-0.011,0.005-0.017,0.015-0.033,0.023c-0.011,0.009-0.027,0.021-0.047,0.032c-0.004,0-0.008,0.003-0.008,0.004
		c-0.012,0.006-0.019,0.014-0.024,0.019c0,0.003-0.006,0.006-0.01,0.006c-0.005,0.004-0.017,0.01-0.023,0.014
		c0,0.003-0.005,0.006-0.012,0.009c-0.003,0.004-0.011,0.006-0.016,0.01c-0.007,0.004-0.009,0.006-0.015,0.01
		c-0.005,0.005-0.009,0.008-0.016,0.01c-0.002,0.001-0.005,0.004-0.012,0.006l-0.032,0.021c0,0.005-0.016,0.011-0.019,0.015
		c-0.005,0.001-0.008,0.005-0.013,0.008c-0.007,0.002-0.011,0.004-0.015,0.007c-0.005,0.006-0.015,0.01-0.019,0.012
		c-0.002,0.005-0.01,0.008-0.014,0.011c-0.008,0-0.008,0.004-0.011,0.008c-0.011,0.004-0.017,0.01-0.017,0.014
		c-0.01,0.001-0.012,0.004-0.019,0.006c-0.006,0.005-0.014,0.008-0.021,0.013l-0.012,0.01c0,0.002-0.009,0.002-0.013,0.006
		c-0.008,0.004-0.013,0.01-0.021,0.013c0,0.003-0.008,0.008-0.012,0.01c-0.002,0-0.01,0.006-0.013,0.008
		c-0.008,0.005-0.016,0.007-0.02,0.012c-0.008,0.004-0.008,0.005-0.012,0.005c-0.007,0.004-0.013,0.011-0.021,0.015
		c-0.003,0.003-0.008,0.005-0.016,0.008c-0.003,0.005-0.006,0.005-0.01,0.006c-0.009,0.006-0.016,0.011-0.018,0.015
		c-0.008,0.005-0.011,0.006-0.016,0.009c-0.003,0.001-0.008,0.004-0.022,0.01c-0.004,0.002-0.004,0.007-0.011,0.01
		c-0.003,0.003-0.011,0.008-0.015,0.008c-0.002,0.002-0.012,0.007-0.016,0.011c-0.005,0.004-0.014,0.005-0.014,0.011
		c-0.007,0.002-0.01,0.004-0.015,0.004c-0.007,0.006-0.015,0.011-0.019,0.016c-0.007,0.004-0.011,0.006-0.013,0.008
		c-0.01,0.004-0.016,0.007-0.023,0.013l-0.01,0.007c-0.006,0.003-0.012,0.007-0.016,0.01c-0.008,0.002-0.012,0.004-0.016,0.008
		c-0.008,0.004-0.013,0.006-0.017,0.012c-0.003,0.003-0.009,0.005-0.012,0.007c-0.007,0.002-0.015,0.008-0.022,0.012l-0.011,0.008
		c-0.006,0.006-0.02,0.008-0.021,0.014c0,0-0.007,0.002-0.011,0.005c-0.008,0.005-0.012,0.01-0.02,0.014
		c-0.006,0-0.006,0-0.01,0.002c-0.008,0.005-0.016,0.011-0.021,0.016c-0.004,0.002-0.004,0.002-0.012,0.005
		c-0.004,0.004-0.011,0.01-0.02,0.015c-0.006,0-0.006,0.002-0.01,0.006c-0.006,0.004-0.014,0.009-0.024,0.012
		c-0.005,0.003-0.005,0.004-0.008,0.004c-0.007,0.005-0.019,0.013-0.026,0.018c-0.01,0.006-0.022,0.011-0.028,0.018
		c0,0-0.003,0.004-0.007,0.004c-0.008,0.006-0.016,0.009-0.026,0.014c0,0.003-0.002,0.003-0.006,0.005
		c-0.007,0.006-0.021,0.013-0.026,0.015c0,0,0,0-0.003,0.004c-0.022,0.011-0.038,0.024-0.063,0.036
		c-0.124,0.076-0.251,0.15-0.381,0.225l9.84,17.048c-1.281,0.433-2.594,0.798-3.937,1.083l-7.995-17.04l-0.046,0.02
		c-0.003,0.003-0.005,0.003-0.005,0.005c-0.012,0.006-0.018,0.008-0.022,0.014c-0.011,0-0.015,0.002-0.017,0.005
		c-0.004,0-0.01,0.002-0.014,0.005c-0.01,0.004-0.017,0.007-0.024,0.013c-0.004,0.002-0.008,0.002-0.011,0.002
		c-0.013,0.005-0.016,0.01-0.029,0.013c0,0.002,0,0.002,0,0.002c-0.006,0.006-0.021,0.011-0.028,0.014c-0.005,0-0.005,0-0.005,0
		c-0.008,0.005-0.019,0.011-0.027,0.017h-0.007l-0.027,0.013c0,0.004-0.005,0.004-0.005,0.004c-0.198,0.089-0.401,0.181-0.606,0.266
		c-0.028,0.014-0.065,0.028-0.101,0.045c-0.008,0.006-0.021,0.008-0.031,0.012h-0.006c-0.006,0.004-0.019,0.01-0.029,0.015h-0.004
		l-0.024,0.013h-0.008c-0.008,0.005-0.019,0.01-0.03,0.014h-0.007c-0.006,0.006-0.017,0.007-0.024,0.014
		c0,0-0.006,0.001-0.008,0.001c-0.01,0.006-0.019,0.008-0.03,0.013c0,0-0.007,0-0.009,0.003c-0.006,0.002-0.014,0.004-0.019,0.007
		c-0.004,0.002-0.013,0.005-0.013,0.008c-0.006,0.002-0.014,0.004-0.023,0.009c-0.006,0-0.006,0-0.01,0.003
		c-0.009,0.002-0.021,0.007-0.021,0.009c-0.008,0.004-0.012,0.006-0.018,0.006l-0.016,0.008c-0.006,0-0.02,0.005-0.021,0.007
		c-0.006,0.003-0.008,0.003-0.015,0.004c-0.003,0.004-0.012,0.009-0.019,0.011c-0.008,0.002-0.011,0.004-0.019,0.004
		c-0.004,0.002-0.008,0.002-0.012,0.006l-0.021,0.008c0,0.002-0.012,0.006-0.02,0.009c-0.004,0.002-0.004,0.002-0.011,0.006
		c-0.009,0-0.014,0.004-0.024,0.006c-0.004,0.002-0.008,0.002-0.011,0.005c-0.005,0.002-0.016,0.008-0.02,0.01
		c-0.008,0.002-0.013,0.002-0.021,0.007c0,0-0.008,0.001-0.011,0.004c-0.011,0.001-0.013,0.005-0.013,0.008
		c-0.01,0.002-0.018,0.004-0.028,0.009c-0.005,0-0.008,0.003-0.012,0.003l-0.018,0.007c-0.011,0.003-0.015,0.004-0.018,0.008
		l-0.016,0.006c-0.006,0.003-0.016,0.007-0.021,0.007l-0.014,0.006l-0.02,0.008c-0.008,0.004-0.012,0.006-0.018,0.008
		c-0.003,0.003-0.011,0.003-0.018,0.005c0,0-0.007,0.003-0.013,0.005c-0.006,0.002-0.016,0.008-0.021,0.011
		c-0.004,0.002-0.008,0.002-0.012,0.004c-0.012,0.004-0.019,0.006-0.024,0.008c-0.004,0.001-0.008,0.001-0.012,0.001
		c-0.007,0.006-0.018,0.011-0.03,0.014c0,0.001,0,0.001,0,0.001c-0.009,0.004-0.021,0.008-0.032,0.01
		c-0.012,0.005-0.025,0.011-0.033,0.015c-0.002,0-0.002,0-0.002,0c-0.096,0.036-0.182,0.068-0.276,0.104l6.178,16.736
		c-1.099,0.103-2.21,0.163-3.336,0.163c-0.214,0-0.427-0.012-0.641-0.016l-4.448-16.16c-0.004,0-0.007,0-0.014,0.003
		c-0.009,0.005-0.024,0.008-0.039,0.01h-0.002c-0.016,0.005-0.026,0.007-0.037,0.011c-0.026,0.005-0.04,0.014-0.065,0.015
		c-0.012,0.006-0.027,0.008-0.043,0.014c-0.689,0.184-1.39,0.343-2.098,0.474l2.848,15.347c-1.276-0.165-2.531-0.396-3.763-0.693
		l-1.421-14.321c-0.777,0.079-1.561,0.122-2.354,0.137l0.202,13.12c-1.149-0.412-2.273-0.878-3.365-1.402l0.803-11.781
		c-0.335-0.021-0.664-0.049-0.996-0.083h-0.003c-0.012-0.004-0.019-0.004-0.032-0.006h-0.039c-0.003-0.002-0.003-0.002-0.006-0.002
		c-0.009,0-0.02-0.002-0.021-0.002c-0.003,0-0.011,0-0.016-0.003c-0.003,0-0.015,0-0.025-0.002c-0.004,0-0.008,0-0.015-0.003h-0.01
		c-0.014,0-0.022-0.003-0.038-0.005c-0.382-0.04-0.767-0.091-1.146-0.148l-1.58,10.336c-0.988-0.605-1.943-1.258-2.866-1.953
		l2.135-8.841c-0.672-0.165-1.337-0.352-1.991-0.561c-0.01-0.002-0.017-0.006-0.032-0.009c0-0.002-0.003-0.002-0.003-0.002
		c-0.013-0.004-0.02-0.008-0.029-0.01c-0.007,0-0.007,0-0.007,0l-0.023-0.008c-0.008-0.003-0.013-0.005-0.021-0.007
		c-0.004-0.002-0.006-0.002-0.01-0.006c-0.047-0.015-0.103-0.032-0.15-0.047l-2.45,7.343c-0.801-0.731-1.566-1.497-2.297-2.298
		l2.541-5.888c-0.559-0.242-1.107-0.498-1.645-0.774c-0.004-0.001-0.006-0.001-0.006-0.005c-0.012-0.001-0.019-0.007-0.03-0.012
		c-0.003-0.003-0.005-0.005-0.012-0.009c-0.007-0.001-0.009-0.004-0.016-0.006c-0.009-0.003-0.013-0.006-0.02-0.009
		c-0.004-0.001-0.007-0.005-0.011-0.006c-0.009-0.004-0.015-0.01-0.027-0.01l-0.007-0.008c-0.008-0.003-0.017-0.008-0.025-0.013
		c0-0.002-0.003-0.002-0.007-0.004c-0.011-0.001-0.016-0.008-0.026-0.012h-0.003c-0.006-0.005-0.016-0.014-0.028-0.016
		c0,0,0-0.002-0.004-0.002c-0.012-0.006-0.022-0.011-0.028-0.018c0,0,0,0-0.004,0c-0.077-0.038-0.149-0.082-0.228-0.119
		l-2.413,4.505c-0.606-0.797-1.176-1.624-1.715-2.472l2.101-3.234c-0.66-0.431-1.303-0.888-1.925-1.369l-1.63,2.096
		c-0.43-0.818-0.832-1.652-1.199-2.505l1.03-1.117c-0.237-0.218-0.473-0.443-0.702-0.671l-0.008-0.001
		c-0.004-0.011-0.009-0.019-0.022-0.025c0-0.003-0.002-0.003-0.002-0.005l-0.033-0.031c-0.004-0.002-0.006-0.007-0.006-0.012
		c-0.01-0.006-0.012-0.01-0.024-0.016c0-0.003-0.002-0.007-0.002-0.013c-0.014-0.004-0.016-0.007-0.022-0.015
		c-0.003-0.002-0.003-0.006-0.008-0.01l-0.016-0.014c-0.003-0.004-0.005-0.005-0.011-0.011c-0.003-0.004-0.011-0.008-0.017-0.015
		c0-0.003-0.003-0.005-0.008-0.008c-0.006-0.008-0.008-0.012-0.019-0.02l-0.028-0.028c0-0.002-0.004-0.002-0.008-0.004l-0.016-0.02
		c-0.003-0.002-0.006-0.002-0.006-0.005c-0.009-0.007-0.013-0.012-0.021-0.02c0-0.003,0-0.005-0.004-0.005
		c-0.004-0.008-0.015-0.015-0.022-0.023c0,0,0-0.001-0.004-0.004c-0.01-0.007-0.015-0.015-0.021-0.022l-0.005-0.002
		c-0.016-0.016-0.034-0.033-0.047-0.049c0-0.001-0.004-0.001-0.004-0.004c-0.007-0.007-0.015-0.017-0.022-0.022l-0.003-0.003
		c-0.008-0.01-0.016-0.016-0.021-0.025c-0.004,0-0.004,0-0.004-0.002c-0.007-0.012-0.016-0.018-0.025-0.026
		c-0.006-0.007-0.016-0.017-0.027-0.025c-0.005-0.009-0.018-0.017-0.021-0.025c0,0,0-0.002-0.004-0.002
		c-0.005-0.012-0.015-0.019-0.021-0.027c0,0,0,0,0-0.002c-0.012-0.01-0.023-0.017-0.027-0.025h-0.002
		c-0.015-0.018-0.033-0.037-0.049-0.051c0-0.002-0.003-0.002-0.003-0.002c-0.006-0.009-0.014-0.02-0.021-0.025v-0.003
		c-0.011-0.01-0.018-0.018-0.026-0.024c0,0,0,0,0-0.003c-0.009-0.006-0.017-0.016-0.027-0.025c-0.005-0.006-0.012-0.017-0.022-0.025
		l-0.005-0.001c-0.003-0.008-0.013-0.019-0.021-0.023c0-0.002,0-0.002-0.005-0.004c-0.007-0.009-0.012-0.018-0.016-0.023
		c-0.004-0.002-0.009-0.002-0.009-0.005c-0.003-0.008-0.011-0.016-0.018-0.02c-0.002-0.002-0.002-0.002-0.002-0.005
		c-0.014-0.006-0.014-0.015-0.024-0.023c0,0-0.004-0.001-0.006-0.004c-0.006-0.008-0.012-0.016-0.019-0.021
		c-0.004-0.002-0.004-0.005-0.009-0.01c-0.004-0.006-0.011-0.012-0.016-0.018c-0.006-0.005-0.006-0.007-0.008-0.01l-0.016-0.015
		c-0.004-0.002-0.007-0.007-0.01-0.015c-0.006-0.002-0.013-0.007-0.013-0.01c-0.008-0.004-0.011-0.01-0.011-0.012
		c-0.006-0.008-0.012-0.012-0.018-0.016c0-0.006-0.004-0.011-0.011-0.016c-0.004-0.002-0.004-0.005-0.012-0.01
		c0-0.002-0.003-0.005-0.007-0.01l-0.314,0.29c-1.219-3.569-1.889-7.389-1.889-11.366c0-9.723,3.963-18.528,10.341-24.919
		c2.676-1.239,5.552-2.399,8.659-3.444c6.242-2.102,12.449-3.995,18.458-5.828l-1.1,1.978
		C571.461,260.076,571.534,260.116,571.611,260.158z M635.229,301.651c0.072,11.819-2.297,22.761-6.568,32.723
		c-3.133-1.791-6.621-3.702-10.531-5.75c-0.348-0.181-0.686-0.352-1.03-0.531c7.639-9.941,12.194-22.368,12.194-35.845
		c0-18.963-9.02-35.838-22.975-46.628c3.603-2.002,6.615-4.202,8.889-6.743C628.302,256.489,635.093,278.067,635.229,301.651z
		 M506.299,192.942c37.18,0,66.638,9.422,87.982,25.2c-9.865,4.222-24.594,8.146-46.164,9.224
		c-16.774,0.838-32.684,6.858-41.818,14.931c-9.134-8.075-25.046-14.093-41.815-14.931c-21.59-1.078-36.324-5.007-46.188-9.233
		C439.639,202.349,469.116,192.942,506.299,192.942z M464.094,235.102c21.288,1.063,39.965,11.346,42.202,20.213
		c2.243-8.867,20.919-19.15,42.206-20.213c57.902-2.893,70.587-25.531,70.587-25.531s0.089,5.013-5.091,13.241
		c-3.798,6.036-13.943,11.891-13.943,11.891l10.255-2.061c-7.197,9.867-32.625,15.113-58.752,23.901
		c-35.853,12.055-45.262,38.486-45.262,38.486s-9.407-26.431-45.26-38.486c-26.125-8.787-51.553-14.034-58.747-23.9l10.252,2.06
		c0,0-10.143-5.855-13.942-11.891c-5.178-8.228-5.089-13.241-5.089-13.241S406.188,232.208,464.094,235.102z M506.299,357.628
		c0,0-18.403-51.507-14.415-71.546c5.218,6.416,7.077,11.437,7.116,11.543l7.296,20.501l7.297-20.5
		c0.153-0.411,2.058-5.334,7.119-11.561C524.713,306.094,506.299,357.628,506.299,357.628z M425.94,610.131
		c0.047-0.14,0.096-0.271,0.144-0.408c0.105-0.296,0.213-0.582,0.323-0.854c0.053-0.135,0.107-0.27,0.162-0.397
		c0.125-0.296,0.255-0.577,0.386-0.846c0.036-0.076,0.072-0.158,0.109-0.234c0.167-0.329,0.338-0.636,0.513-0.928
		c0.054-0.09,0.108-0.17,0.163-0.255c0.128-0.204,0.259-0.399,0.391-0.585c0.064-0.088,0.129-0.176,0.193-0.261
		c0.137-0.179,0.275-0.346,0.414-0.504c0.055-0.06,0.107-0.126,0.162-0.184c0.191-0.207,0.384-0.396,0.58-0.567
		c0.045-0.039,0.092-0.071,0.138-0.111c0.155-0.129,0.313-0.25,0.47-0.358c0.068-0.047,0.137-0.091,0.205-0.134
		c0.146-0.093,0.291-0.176,0.438-0.252c0.064-0.032,0.126-0.067,0.19-0.098c0.205-0.098,0.411-0.183,0.619-0.252
		c0.019-0.007,0.039-0.01,0.058-0.016c0.19-0.059,0.382-0.105,0.573-0.143c0.068-0.013,0.136-0.022,0.205-0.031
		c0.147-0.022,0.295-0.039,0.443-0.047c0.07-0.004,0.139-0.01,0.209-0.011c0.077-0.001,0.152,0.005,0.229,0.007
		c0.324,0.006,0.648,0.036,0.968,0.101c0.018,0.002,0.036,0.002,0.054,0.008c0.349,0.071,0.693,0.179,1.032,0.311
		c0.036,0.015,0.071,0.026,0.106,0.042c0.705,0.284,1.386,0.685,2.022,1.17c-1.082,1.874-2.055,4.13-2.835,6.878
		c-1.179,3.942-4.031,14.614-3.672,24.13c-3.074,0.639-5.5,2.05-6.726,2.871c0-0.001,0-0.002,0-0.005
		c-0.074,0.05-0.132,0.093-0.198,0.138c-0.102,0.07-0.181,0.124-0.261,0.182c-0.083,0.059-0.158,0.113-0.217,0.159
		c-0.071,0.052-0.103,0.075-0.133,0.101c-0.044,0.033-0.071,0.055-0.071,0.055c-3.587-8.072,2.19-27.303,2.19-27.303
		C425.651,611.018,425.793,610.567,425.94,610.131z M451.85,637.281c-5.872,0.111-10.42,3.818-10.42,3.818
		c-0.129-0.289-0.243-0.596-0.347-0.913c-0.033-0.1-0.062-0.204-0.093-0.308c-0.069-0.226-0.133-0.457-0.191-0.697
		c-0.027-0.117-0.056-0.237-0.083-0.359c-0.053-0.246-0.101-0.501-0.145-0.761c-0.018-0.107-0.038-0.214-0.055-0.323
		c-0.055-0.369-0.103-0.745-0.14-1.131c-0.867-9.127,3.243-22.811,3.243-22.811c1.845-6.548,4.768-8.85,7.625-8.85
		c1.957,0,3.881,1.083,5.408,2.617c-0.454,1.109-0.884,2.286-1.26,3.606C454.13,615.389,450.956,627.313,451.85,637.281z
		 M391.048,292.249c0-17.918,9.27-33.685,23.249-42.834c3.11,1.276,6.484,2.497,10.095,3.704
		c-14.843,6.802-25.199,21.763-25.199,39.13c0,23.744,19.317,43.06,43.061,43.06c20.376,0,37.48-14.233,41.923-33.277
		c0.539,4.972,1.435,10.236,2.539,15.507c-8.821,15.455-25.429,25.915-44.462,25.915
		C414.02,343.453,391.048,320.483,391.048,292.249z M413.322,343.58c-18.616,37.791-27.218,121.093,2.714,255.781
		c0,0-86.679-108.346-49.118-238.358c1.846-6.391,19.73-16.792,35.839-25.034C405.974,338.879,409.52,341.43,413.322,343.58z
		 M427.45,260.199c0.996-0.462,2.016-0.88,3.06-1.25l5.013,5.269c0.569-0.542,1.163-1.061,1.777-1.553l-3.732-4.647
		c0.993-0.252,2.003-0.459,3.025-0.625l2.606,3.875c0.204-0.139,0.409-0.273,0.616-0.404h0.001c0.031-0.021,0.06-0.038,0.092-0.061
		h0c0.01-0.005,0.02-0.01,0.029-0.017c0,0,0.002,0,0.005-0.004c0.01-0.004,0.017-0.012,0.026-0.017c0.002,0,0.003,0,0.004-0.003
		c0.02-0.012,0.039-0.022,0.059-0.035l0.002-0.002c0.011-0.006,0.018-0.011,0.027-0.017l0.005-0.004
		c0.009-0.004,0.02-0.012,0.027-0.016c0.002-0.001,0.004-0.004,0.004-0.004l0.026-0.015c0-0.002,0.004-0.002,0.006-0.005
		c0.008-0.002,0.015-0.008,0.023-0.013c0.002-0.002,0.004-0.002,0.007-0.005c0.008-0.004,0.017-0.01,0.023-0.014
		c0.004-0.001,0.007-0.006,0.011-0.006c0.009-0.004,0.014-0.009,0.022-0.015c0.002-0.001,0.006-0.001,0.008-0.004
		c0.006-0.005,0.015-0.01,0.021-0.013c0.004-0.002,0.008-0.005,0.013-0.008c0.006-0.001,0.012-0.006,0.02-0.012
		c0.003,0,0.005-0.001,0.007-0.001c0.009-0.008,0.017-0.011,0.025-0.016c0.002-0.003,0.007-0.005,0.009-0.007
		c0.008-0.006,0.016-0.008,0.023-0.012c0.002-0.004,0.007-0.005,0.01-0.005c0.007-0.006,0.011-0.01,0.019-0.014
		c0.006-0.001,0.01-0.005,0.014-0.009c0.006-0.004,0.01-0.005,0.017-0.008c0.003-0.001,0.008-0.007,0.013-0.01
		c0.006-0.002,0.014-0.007,0.02-0.011c0.003-0.001,0.009-0.005,0.012-0.007c0.008-0.004,0.015-0.01,0.022-0.013
		c0.004-0.001,0.006-0.004,0.01-0.007c0.005-0.003,0.012-0.007,0.018-0.01c0.004-0.004,0.01-0.008,0.016-0.008
		c0.004-0.005,0.011-0.008,0.015-0.014c0.006,0,0.01-0.001,0.012-0.004c0.008-0.006,0.014-0.008,0.022-0.012
		c0.004-0.003,0.008-0.005,0.012-0.009c0.007-0.001,0.016-0.01,0.021-0.012c0.004-0.003,0.01-0.005,0.012-0.008l0.017-0.01
		c0.006-0.002,0.011-0.006,0.015-0.01c0.006,0,0.012-0.004,0.017-0.008l0.014-0.007c0.004-0.006,0.013-0.008,0.019-0.014
		c0.004-0.001,0.009-0.004,0.012-0.006c0.008-0.006,0.013-0.008,0.023-0.014c0.004-0.001,0.006-0.005,0.01-0.005
		c0.006-0.004,0.014-0.01,0.02-0.012c0.003-0.003,0.009-0.003,0.012-0.006c0.007-0.003,0.013-0.01,0.02-0.012
		c0.005-0.002,0.007-0.002,0.009-0.005c0.009-0.005,0.015-0.01,0.025-0.015c0.001,0,0.004-0.003,0.008-0.005
		c0.008-0.002,0.018-0.01,0.024-0.014c0.004-0.001,0.006-0.001,0.008-0.004c0.009-0.006,0.018-0.01,0.028-0.015l0.001-0.002
		c0.009-0.005,0.02-0.011,0.028-0.016c0-0.002,0.001-0.002,0.003-0.002c0.009-0.004,0.019-0.01,0.028-0.015
		c0.002-0.002,0.004-0.002,0.005-0.002c0.009-0.008,0.018-0.014,0.028-0.019c0,0,0,0,0.003-0.003
		c0.075-0.042,0.149-0.083,0.224-0.123l-1.1-1.978c6.008,1.833,12.212,3.726,18.457,5.828c3.106,1.044,5.984,2.205,8.66,3.446
		c6.377,6.391,10.338,15.195,10.338,24.917c0,3.975-0.67,7.794-1.886,11.364l-0.313-0.287c-0.001,0.004-0.005,0.008-0.009,0.01
		c-0.003,0.004-0.004,0.008-0.009,0.01c-0.004,0.005-0.009,0.01-0.011,0.016c-0.005,0.003-0.01,0.007-0.015,0.015
		c-0.004,0.002-0.008,0.007-0.011,0.012c-0.005,0.003-0.01,0.008-0.014,0.01c-0.002,0.008-0.008,0.013-0.012,0.015l-0.014,0.015
		c-0.001,0.003-0.004,0.005-0.008,0.011c-0.007,0.006-0.012,0.013-0.019,0.018c-0.002,0.005-0.003,0.007-0.006,0.01
		c-0.006,0.005-0.013,0.013-0.021,0.021c-0.001,0.002-0.002,0.004-0.005,0.004c-0.008,0.008-0.013,0.017-0.021,0.023
		c0,0.003,0,0.003-0.003,0.005c-0.008,0.004-0.013,0.012-0.021,0.02c-0.001,0.003-0.004,0.003-0.005,0.005
		c-0.005,0.006-0.012,0.015-0.021,0.023c0,0.002-0.002,0.002-0.003,0.004c-0.007,0.004-0.016,0.015-0.022,0.023l-0.003,0.001
		c-0.008,0.008-0.016,0.019-0.024,0.026h0c-0.008,0.009-0.016,0.019-0.023,0.025c0,0.003,0,0.003-0.002,0.003
		c-0.008,0.007-0.016,0.015-0.023,0.024l-0.004,0.003c-0.007,0.006-0.015,0.016-0.021,0.025c0,0-0.003,0-0.004,0.002
		c-0.017,0.014-0.034,0.033-0.049,0.051c-0.009,0.008-0.015,0.015-0.025,0.025c0,0.002-0.001,0.002-0.001,0.002
		c-0.008,0.008-0.015,0.015-0.024,0.027l-0.003,0.002c-0.008,0.008-0.016,0.016-0.024,0.025h-0.001
		c-0.007,0.008-0.016,0.018-0.024,0.025c-0.007,0.008-0.017,0.015-0.024,0.026c0,0.002-0.002,0.002-0.002,0.002
		c-0.007,0.009-0.016,0.015-0.024,0.025l-0.003,0.003c-0.007,0.005-0.016,0.015-0.021,0.022c-0.004,0.003-0.005,0.003-0.005,0.004
		c-0.016,0.017-0.032,0.034-0.046,0.049l-0.002,0.002c-0.009,0.007-0.017,0.015-0.023,0.022c0,0.003-0.003,0.004-0.003,0.004
		c-0.01,0.008-0.017,0.015-0.025,0.023c0,0-0.001,0.002-0.003,0.005c-0.008,0.008-0.014,0.012-0.022,0.02
		c0,0.003,0,0.003-0.001,0.005l-0.022,0.02c-0.001,0.002-0.002,0.002-0.005,0.004l-0.026,0.028c-0.009,0.008-0.014,0.012-0.021,0.02
		c-0.004,0.003-0.007,0.005-0.008,0.008c-0.006,0.007-0.011,0.011-0.016,0.015c-0.004,0.006-0.007,0.008-0.013,0.012l-0.014,0.014
		c-0.001,0.003-0.006,0.008-0.009,0.01c-0.006,0.008-0.01,0.011-0.016,0.015c-0.002,0.005-0.008,0.011-0.01,0.013
		c-0.006,0.006-0.012,0.01-0.017,0.016c-0.004,0.005-0.008,0.01-0.012,0.012l-0.03,0.032c-0.001,0.001-0.005,0.001-0.006,0.005
		c-0.008,0.006-0.015,0.014-0.024,0.025c0,0-0.002,0.001-0.004,0.001c-0.23,0.228-0.464,0.453-0.701,0.671l1.027,1.113
		c-0.366,0.855-0.769,1.689-1.199,2.507l-1.629-2.094c-0.62,0.481-1.262,0.938-1.922,1.369l2.1,3.23
		c-0.54,0.848-1.109,1.675-1.717,2.474l-2.414-4.503c-0.074,0.038-0.151,0.081-0.226,0.119h-0.002
		c-0.01,0.007-0.019,0.012-0.03,0.018c0,0-0.002,0.002-0.004,0.002c-0.01,0.002-0.02,0.011-0.029,0.016h-0.003
		c-0.01,0.004-0.017,0.011-0.026,0.012c-0.001,0.002-0.005,0.002-0.007,0.004c-0.008,0.005-0.017,0.01-0.025,0.013l-0.01,0.008
		c-0.008,0-0.016,0.006-0.023,0.01c-0.005,0.001-0.008,0.005-0.014,0.006c-0.004,0.003-0.01,0.006-0.015,0.009
		c-0.006,0.001-0.014,0.004-0.02,0.006c-0.003,0.004-0.009,0.007-0.011,0.009c-0.01,0.004-0.018,0.01-0.027,0.012
		c0,0.004-0.004,0.004-0.007,0.005c-0.539,0.276-1.087,0.532-1.645,0.774l2.539,5.887c-0.729,0.801-1.495,1.567-2.294,2.298
		l-2.449-7.342c-0.049,0.015-0.101,0.032-0.151,0.047c-0.003,0.004-0.008,0.004-0.012,0.006c-0.007,0.002-0.013,0.004-0.019,0.007
		l-0.022,0.008h-0.009c-0.01,0.003-0.02,0.006-0.028,0.01c-0.004,0-0.005,0-0.006,0.002c-0.011,0.003-0.022,0.007-0.032,0.009
		c-0.653,0.209-1.316,0.396-1.99,0.561l2.133,8.839c-0.921,0.695-1.876,1.349-2.865,1.953l-1.583-10.334
		c-0.378,0.057-0.757,0.108-1.143,0.148c0,0-0.001,0-0.004,0c-0.011,0.002-0.023,0.005-0.036,0.005h-0.008
		c-0.005,0.003-0.011,0.003-0.018,0.003c-0.008,0.002-0.016,0.002-0.024,0.002c-0.003,0.003-0.007,0.003-0.013,0.003
		c-0.006,0-0.013,0.002-0.02,0.002c-0.004,0-0.008,0-0.011,0.002h-0.038c-0.009,0.002-0.022,0.002-0.032,0.006h-0.002
		c-0.33,0.034-0.662,0.063-0.994,0.083l0.799,11.781c-1.09,0.524-2.212,0.99-3.361,1.401l0.201-13.118
		c-0.795-0.015-1.578-0.058-2.355-0.137l-1.421,14.321c-1.231,0.298-2.486,0.529-3.763,0.693l2.848-15.347
		c-0.708-0.131-1.408-0.29-2.101-0.474h0c-0.013-0.006-0.025-0.008-0.038-0.014c0,0-0.002,0-0.004,0
		c-0.02-0.001-0.04-0.01-0.06-0.014c-0.014-0.005-0.026-0.007-0.038-0.013h-0.007c-0.013-0.002-0.024-0.005-0.035-0.01h-0.005
		c-0.002-0.002-0.005-0.002-0.009-0.002l-4.449,16.159c-0.214,0.004-0.425,0.016-0.641,0.016c-1.125,0-2.238-0.06-3.337-0.163
		l6.18-16.736c-0.094-0.036-0.184-0.068-0.276-0.104h-0.001c-0.012-0.005-0.022-0.01-0.034-0.016
		c-0.011-0.002-0.022-0.006-0.033-0.01c0,0-0.002,0-0.002-0.001c-0.01-0.003-0.02-0.008-0.029-0.014c-0.003,0-0.005,0-0.009-0.001
		c-0.009-0.002-0.017-0.004-0.026-0.008c-0.004-0.001-0.007-0.001-0.011-0.004c-0.007-0.001-0.017-0.008-0.025-0.01
		c-0.002-0.002-0.008-0.006-0.01-0.006c-0.007-0.002-0.013-0.002-0.019-0.005c-0.006-0.002-0.01-0.004-0.015-0.008l-0.021-0.007
		l-0.014-0.006c-0.007,0-0.016-0.003-0.023-0.007l-0.014-0.006c-0.005-0.003-0.01-0.005-0.015-0.008l-0.021-0.006
		c-0.005,0-0.007-0.004-0.013-0.004c-0.008-0.004-0.014-0.007-0.023-0.009c-0.004-0.003-0.009-0.007-0.014-0.008
		c-0.005-0.003-0.011-0.004-0.015-0.004c-0.006-0.005-0.01-0.005-0.017-0.007c-0.006-0.002-0.014-0.008-0.021-0.01
		c-0.003-0.003-0.007-0.003-0.012-0.005c-0.009-0.002-0.015-0.006-0.023-0.006c-0.005-0.003-0.008-0.003-0.013-0.005
		c-0.007-0.003-0.015-0.007-0.019-0.01l-0.02-0.008c-0.003-0.002-0.009-0.002-0.014-0.006c-0.004,0-0.009-0.002-0.016-0.004
		c-0.007-0.002-0.013-0.007-0.02-0.011c-0.007-0.001-0.009-0.001-0.013-0.004c-0.008-0.001-0.013-0.007-0.02-0.007l-0.018-0.008
		c-0.006,0-0.011-0.002-0.013-0.006c-0.009-0.002-0.017-0.007-0.023-0.009c-0.005-0.003-0.01-0.003-0.015-0.003
		c-0.005-0.005-0.014-0.007-0.023-0.009c-0.003-0.002-0.007-0.006-0.011-0.008c-0.008-0.003-0.014-0.005-0.02-0.007
		c-0.002-0.003-0.005-0.003-0.01-0.003c-0.009-0.004-0.017-0.006-0.025-0.013c-0.004,0-0.007-0.001-0.009-0.001
		c-0.01-0.006-0.02-0.008-0.028-0.014h-0.008c-0.009-0.004-0.019-0.009-0.027-0.014h-0.005l-0.029-0.013h-0.003
		c-0.012-0.005-0.02-0.011-0.03-0.015h-0.003c-0.012-0.004-0.022-0.006-0.033-0.012h-0.001c-0.033-0.017-0.067-0.032-0.1-0.045
		h-0.001c-0.204-0.085-0.405-0.177-0.605-0.266c0,0-0.001,0-0.001-0.004l-0.031-0.013h-0.002c-0.011-0.004-0.022-0.012-0.031-0.017
		c-0.003,0-0.003,0-0.003,0c-0.009-0.003-0.02-0.008-0.029-0.014c-0.002,0-0.003,0-0.003-0.002c-0.01-0.002-0.02-0.008-0.026-0.013
		c-0.004,0-0.008,0-0.013-0.002c-0.007-0.006-0.015-0.009-0.023-0.013c-0.002-0.002-0.008-0.005-0.012-0.005
		c-0.005-0.003-0.009-0.005-0.014-0.005c-0.008-0.005-0.016-0.007-0.023-0.014c-0.004-0.001-0.005-0.001-0.009-0.005l-0.045-0.02
		l-7.996,17.04c-1.343-0.285-2.655-0.65-3.937-1.084l9.841-17.047c-0.127-0.075-0.256-0.149-0.381-0.225
		c-0.022-0.012-0.041-0.024-0.063-0.036c0-0.004-0.001-0.004-0.001-0.004c-0.009-0.001-0.019-0.009-0.029-0.015
		c0-0.002-0.003-0.002-0.004-0.004c-0.009-0.005-0.02-0.008-0.029-0.014c0,0-0.002-0.004-0.005-0.004
		c-0.007-0.007-0.018-0.011-0.028-0.018c-0.009-0.005-0.017-0.013-0.027-0.018c-0.001,0-0.002-0.001-0.005-0.004
		c-0.008-0.002-0.019-0.007-0.025-0.012c-0.003-0.004-0.005-0.006-0.009-0.006c-0.009-0.005-0.014-0.011-0.023-0.015
		c-0.004-0.002-0.005-0.002-0.009-0.005c-0.008-0.005-0.015-0.011-0.021-0.016c-0.002-0.002-0.007-0.002-0.009-0.002
		c-0.009-0.004-0.013-0.009-0.02-0.014c-0.005-0.003-0.009-0.005-0.01-0.005c-0.008-0.006-0.015-0.008-0.023-0.014l-0.01-0.008
		c-0.008-0.004-0.015-0.01-0.023-0.012c-0.002-0.002-0.008-0.004-0.01-0.007c-0.006-0.006-0.012-0.008-0.016-0.012
		c-0.006-0.003-0.011-0.006-0.015-0.008c-0.008-0.002-0.013-0.007-0.018-0.01l-0.011-0.007c-0.008-0.006-0.016-0.008-0.022-0.014
		c-0.003-0.002-0.008-0.004-0.011-0.008c-0.007-0.005-0.016-0.009-0.02-0.015c-0.005,0-0.009-0.002-0.013-0.004
		c-0.006-0.007-0.011-0.008-0.017-0.012c-0.004-0.004-0.01-0.009-0.016-0.011c-0.004,0-0.009-0.004-0.014-0.007
		c-0.004-0.002-0.01-0.008-0.015-0.01c-0.007-0.006-0.012-0.008-0.017-0.01c-0.006-0.002-0.01-0.004-0.015-0.009
		c-0.005-0.004-0.011-0.009-0.02-0.015c-0.005-0.001-0.008-0.001-0.014-0.006c-0.004-0.003-0.006-0.005-0.012-0.008
		c-0.005-0.004-0.013-0.01-0.019-0.015c-0.005,0-0.009-0.001-0.014-0.005c-0.005-0.005-0.01-0.007-0.017-0.012
		c-0.004-0.002-0.01-0.008-0.017-0.008c-0.003-0.002-0.008-0.007-0.011-0.01c-0.007-0.003-0.015-0.009-0.021-0.013
		c-0.005-0.004-0.008-0.004-0.013-0.006c-0.004-0.003-0.009-0.007-0.014-0.01c-0.006-0.005-0.012-0.007-0.018-0.013
		c-0.004-0.001-0.009-0.005-0.013-0.006c-0.007-0.004-0.012-0.009-0.018-0.014c-0.005-0.004-0.011-0.008-0.015-0.008
		c-0.006-0.003-0.009-0.005-0.015-0.011c-0.004-0.002-0.011-0.006-0.017-0.012l-0.014-0.007c-0.004-0.002-0.008-0.006-0.013-0.008
		c-0.007-0.004-0.015-0.01-0.021-0.014l-0.033-0.022c-0.002-0.002-0.007-0.005-0.01-0.006c-0.006-0.002-0.01-0.004-0.017-0.01
		c-0.004-0.003-0.009-0.005-0.014-0.01c-0.006-0.003-0.01-0.006-0.016-0.01c-0.003-0.003-0.01-0.006-0.012-0.009
		c-0.006-0.004-0.015-0.01-0.022-0.014c-0.002,0-0.007-0.003-0.009-0.005c-0.008-0.006-0.017-0.014-0.025-0.02
		c-0.003-0.001-0.004-0.004-0.009-0.004c-0.015-0.01-0.032-0.023-0.048-0.032h-0.002c-0.011-0.009-0.021-0.019-0.031-0.023
		c0,0-0.003,0-0.004-0.003c-0.04-0.025-0.081-0.052-0.12-0.078l-0.003-0.003c-0.106-0.073-0.212-0.146-0.318-0.219l-11.67,16.774
		c-1.256-0.596-2.468-1.266-3.636-2l13.429-16.201c-0.607-0.502-1.191-1.028-1.751-1.582l-15.077,15.359
		c-1.09-0.879-2.127-1.82-3.106-2.82l16.569-14.262c-0.289-0.332-0.569-0.674-0.842-1.022h0c-0.03-0.041-0.061-0.079-0.089-0.116
		c0-0.004,0-0.004,0-0.004c-0.182-0.23-0.358-0.469-0.531-0.708l-17.867,12.933c-0.857-1.114-1.651-2.277-2.373-3.491l18.938-11.407
		c-0.083-0.137-0.165-0.274-0.244-0.412c0-0.002,0-0.002,0-0.002c-0.005-0.007-0.012-0.02-0.016-0.031
		c-0.002,0-0.004-0.002-0.004-0.002l-0.018-0.027c0-0.004-0.001-0.004-0.001-0.004c-0.004-0.012-0.01-0.02-0.016-0.029
		c0,0,0,0,0-0.003c-0.006-0.01-0.012-0.016-0.017-0.027c0-0.002-0.001-0.002-0.002-0.005c-0.006-0.009-0.01-0.018-0.016-0.029
		c-0.003-0.001-0.004-0.004-0.005-0.005c-0.003-0.009-0.009-0.017-0.013-0.027l-0.004-0.005c-0.005-0.007-0.01-0.017-0.013-0.024
		l-0.004-0.005c-0.006-0.01-0.01-0.019-0.015-0.025c0-0.003-0.002-0.005-0.003-0.007c-0.005-0.01-0.01-0.016-0.015-0.025
		c-0.002-0.002-0.003-0.004-0.004-0.01c-0.007-0.007-0.01-0.015-0.015-0.025l-0.005-0.008c-0.004-0.006-0.008-0.013-0.013-0.022
		l-0.002-0.004c-0.005-0.011-0.009-0.019-0.015-0.029l-0.002-0.005c-0.006-0.01-0.01-0.018-0.016-0.024
		c0-0.004-0.003-0.005-0.004-0.008l-0.015-0.027c-0.001-0.004-0.002-0.004-0.002-0.006c-0.005-0.01-0.011-0.017-0.014-0.026
		c-0.001-0.001-0.002-0.001-0.002-0.004c-0.007-0.008-0.011-0.017-0.016-0.028l-0.005-0.005c-0.004-0.009-0.01-0.018-0.015-0.028
		l-0.002-0.005c-0.006-0.01-0.012-0.021-0.014-0.027c-0.001-0.002-0.004-0.002-0.004-0.006l-0.013-0.027
		c0,0-0.002-0.003-0.004-0.003c-0.005-0.01-0.009-0.02-0.017-0.03l0-0.002c-0.004-0.011-0.012-0.021-0.017-0.031
		c0-0.001,0-0.001,0-0.001c-0.175-0.323-0.346-0.651-0.509-0.985l-19.746,9.723c-0.567-1.282-1.065-2.601-1.479-3.956l20.274-7.922
		c-0.071-0.185-0.143-0.367-0.209-0.552c-0.004-0.011-0.006-0.023-0.012-0.036c-0.008-0.022-0.017-0.042-0.024-0.063
		c0-0.003,0-0.004-0.003-0.008c-0.004-0.007-0.005-0.017-0.009-0.027c0-0.006-0.002-0.008-0.004-0.008l-0.009-0.029
		c-0.003-0.001-0.004-0.006-0.004-0.01c-0.003-0.005-0.005-0.015-0.006-0.02c-0.003-0.005-0.004-0.007-0.007-0.012
		c-0.002-0.011-0.005-0.016-0.007-0.023c-0.001-0.006-0.003-0.011-0.005-0.014c-0.004-0.005-0.005-0.013-0.008-0.019l-0.005-0.02
		c-0.002-0.002-0.003-0.009-0.004-0.011c-0.003-0.008-0.007-0.018-0.011-0.03c0,0,0-0.003-0.001-0.005
		c-0.156-0.447-0.301-0.896-0.438-1.35l-20.489,6.056c-0.242-1.361-0.411-2.747-0.492-4.157l20.408-4.188
		c-0.002-0.017-0.006-0.033-0.01-0.053c0-0.002,0-0.002-0.002-0.002c-0.001-0.011-0.003-0.023-0.005-0.031
		c0-0.006,0-0.008-0.001-0.012c-0.001-0.009-0.003-0.011-0.004-0.017c-0.002-0.007-0.003-0.015-0.004-0.02
		c0-0.004-0.001-0.01-0.002-0.017c-0.001-0.008-0.003-0.013-0.004-0.02c0-0.003-0.003-0.009-0.003-0.011
		c-0.002-0.007-0.004-0.019-0.005-0.03c0-0.003,0-0.005,0-0.005c-0.002-0.012-0.005-0.023-0.007-0.033c0,0,0,0,0-0.002
		c-0.101-0.514-0.188-1.036-0.258-1.561c0,0,0,0,0-0.003c-0.003-0.009-0.003-0.019-0.005-0.033
		c-0.002-0.001-0.002-0.001-0.002-0.001c0-0.013-0.002-0.026-0.004-0.035c0-0.002,0-0.002,0-0.002
		c-0.001-0.012-0.002-0.02-0.003-0.032c0-0.002,0-0.004-0.002-0.008c0-0.01-0.001-0.02-0.002-0.03c0-0.003-0.001-0.005-0.001-0.01
		c-0.002-0.006-0.003-0.014-0.005-0.023c0-0.004-0.001-0.01-0.001-0.016c0-0.006-0.001-0.011-0.001-0.019
		c0-0.006-0.002-0.01-0.002-0.015l-0.002-0.024c-0.003-0.004-0.003-0.012-0.004-0.017c0-0.003-0.001-0.008-0.001-0.011
		c-0.002-0.012-0.003-0.021-0.004-0.033v-0.004c-0.009-0.068-0.016-0.134-0.026-0.2l-20.026,2.365
		c0.082-1.377,0.247-2.732,0.482-4.063l19.367-0.654c-0.003-0.066-0.005-0.129-0.007-0.191v-0.008c0-0.005,0-0.01-0.001-0.016v-0.03
		c0-0.008,0-0.016-0.002-0.021v-0.038c-0.001-0.018-0.001-0.039-0.001-0.057c0-0.001,0-0.001,0-0.001v-0.028c0,0,0,0,0-0.002
		c-0.001-0.031-0.001-0.058-0.001-0.088c0-0.061-0.001-0.121-0.002-0.18v-0.092c0-0.021-0.001-0.038-0.001-0.056v-0.331
		c0-0.007,0.001-0.015,0.001-0.02v-0.002c0.001-0.284,0.007-0.566,0.018-0.849v-0.037c0.003-0.107,0.009-0.21,0.013-0.316
		l-18.455-0.912c0.384-1.284,0.836-2.541,1.358-3.759l17.313,2.321c0.034-0.246,0.067-0.486,0.107-0.729
		c0-0.003,0.002-0.005,0.002-0.008c0.002-0.009,0.004-0.021,0.006-0.03c0-0.002,0-0.004,0-0.007
		c0.001-0.009,0.003-0.019,0.003-0.026c0-0.004,0.001-0.006,0.001-0.01c0.002-0.01,0.004-0.017,0.006-0.025
		c0-0.004,0-0.008,0.002-0.012c0.002-0.009,0.002-0.018,0.004-0.027c0-0.003,0-0.009,0-0.014c0.002-0.005,0.003-0.012,0.005-0.017
		l0.002-0.021c0.002-0.004,0.003-0.01,0.003-0.018c0.002-0.006,0.002-0.01,0.003-0.015c0-0.008,0.001-0.014,0.003-0.023l0.004-0.017
		c0-0.002,0.001-0.008,0.001-0.01c0.001-0.01,0.003-0.021,0.004-0.031c0-0.002,0-0.006,0-0.01c0.005-0.016,0.008-0.04,0.012-0.058
		c0-0.002,0-0.005,0-0.005l0.009-0.037v-0.004c0.002-0.013,0.004-0.026,0.005-0.041h0.002l0.012-0.063
		c0.001,0,0.001-0.002,0.001-0.006l0.007-0.036c0,0,0-0.003,0.001-0.003c0.002-0.021,0.004-0.041,0.01-0.059
		c0-0.006,0-0.007,0.002-0.01c0.001-0.01,0.004-0.021,0.005-0.031c0.001-0.006,0.001-0.008,0.001-0.01l0.003-0.019
		c0.003-0.006,0.003-0.015,0.006-0.021c0.001-0.005,0.001-0.013,0.002-0.019c0.001-0.004,0.003-0.01,0.003-0.015l0.004-0.019
		c0.001-0.006,0.002-0.012,0.004-0.019c0-0.004,0.002-0.01,0.002-0.01c0.002-0.012,0.002-0.02,0.006-0.031
		c0-0.002,0.001-0.007,0.001-0.01c0-0.01,0.003-0.018,0.004-0.027c0-0.002,0-0.005,0.004-0.007c0-0.01,0.002-0.018,0.003-0.027
		c0-0.003,0.001-0.003,0.001-0.006l0.007-0.033v-0.005c0.042-0.215,0.087-0.429,0.135-0.643l-15.961-3.54
		c0.643-1.129,1.345-2.22,2.104-3.268l14.464,4.526c0.022-0.066,0.041-0.131,0.064-0.197v-0.002
		c0.006-0.019,0.013-0.038,0.017-0.057c0-0.005,0.004-0.01,0.006-0.017c0.002-0.005,0.004-0.01,0.006-0.018
		c0.001-0.006,0.004-0.012,0.007-0.021l0.004-0.01c0.001-0.008,0.004-0.018,0.008-0.028c0.002-0.001,0.002-0.004,0.002-0.004
		c0.002-0.012,0.007-0.021,0.01-0.032l0-0.003c0.205-0.62,0.43-1.23,0.675-1.83l-12.874-5.269c0.831-0.921,1.711-1.797,2.633-2.627
		l11.226,5.751c0.36-0.7,0.749-1.387,1.165-2.052l-9.579-5.976c0.946-0.691,1.929-1.334,2.943-1.931l7.966,5.96
		c0.324-0.434,0.66-0.857,1.008-1.271c0.002,0,0.002,0,0.002,0c0.009-0.011,0.016-0.02,0.025-0.027c0,0,0,0,0-0.004
		c0.005-0.006,0.015-0.018,0.022-0.024l0.002-0.002c0.005-0.008,0.013-0.016,0.018-0.022c0.002-0.004,0.002-0.005,0.004-0.005
		c0.007-0.009,0.013-0.015,0.021-0.024c0.002-0.001,0.002-0.005,0.006-0.008c0.006-0.006,0.012-0.012,0.02-0.021
		c0.002,0,0.003-0.004,0.005-0.008c0.009-0.006,0.011-0.012,0.019-0.021c0.001-0.002,0.004-0.004,0.006-0.006
		c0.005-0.005,0.011-0.01,0.015-0.018c0.002-0.004,0.006-0.006,0.008-0.008c0.004-0.007,0.011-0.013,0.016-0.021
		c0.002-0.002,0.006-0.004,0.009-0.01c0.004-0.005,0.01-0.012,0.018-0.016c0.001-0.006,0.004-0.009,0.008-0.014
		c0.004-0.003,0.009-0.01,0.013-0.015c0.004-0.002,0.006-0.008,0.01-0.015c0.007-0.004,0.009-0.008,0.014-0.014
		c0.003-0.002,0.007-0.007,0.01-0.01c0.007-0.006,0.011-0.012,0.015-0.015c0.001-0.006,0.006-0.01,0.01-0.014
		c0.004-0.006,0.011-0.012,0.015-0.016c0.004-0.005,0.008-0.008,0.01-0.013c0.003-0.004,0.007-0.006,0.012-0.012
		c0.004-0.004,0.008-0.009,0.015-0.014c0.002-0.006,0.006-0.011,0.01-0.014c0.004-0.005,0.007-0.01,0.012-0.015
		c0.004-0.004,0.007-0.009,0.012-0.013c0.003-0.006,0.008-0.01,0.009-0.012c0.008-0.005,0.014-0.014,0.018-0.019
		c0.002-0.005,0.006-0.008,0.009-0.01c0.005-0.008,0.01-0.012,0.016-0.018c0.001-0.005,0.006-0.007,0.01-0.011
		c0.003-0.006,0.009-0.009,0.014-0.015c0.001-0.004,0.005-0.008,0.01-0.01c0.005-0.009,0.009-0.014,0.015-0.018
		c0.002-0.003,0.002-0.003,0.004-0.007L427.45,260.199z M482.347,276.646c1.242,0.999,2.396,2,3.474,2.997
		c-0.202,0.393-0.381,0.787-0.524,1.179c-0.34,0.935-0.607,1.961-0.839,3.032C483.963,281.366,483.252,278.96,482.347,276.646z
		 M397.401,238.894c2.273,2.535,5.283,4.731,8.879,6.729c-13.955,10.789-22.978,27.662-22.978,46.626
		c0,13.478,4.557,25.905,12.196,35.846c-0.345,0.179-0.683,0.349-1.029,0.53c-3.911,2.048-7.4,3.958-10.531,5.749
		c-4.271-9.963-6.643-20.907-6.573-32.723C377.506,278.07,384.31,256.504,397.401,238.894z M328.173,477.094
		c-46.877-97.647-20.31-211.559,57.731-279.282l-0.14,11.624c-0.017,1.01,0.116,5.667,3.586,12.708l-5.041-1.014l6.7,9.192
		c-15.386,19.593-23.811,44.286-23.971,71.267c-0.079,13.366,2.635,26.161,8.011,38.169c-13.367,8.643-16.78,13.968-18.054,18.378
		c-20.207,69.945-5.292,133.538,10.779,174.569c0.606,1.549,1.22,3.071,1.836,4.581
		C353.154,519.951,339.074,499.803,328.173,477.094z M432.155,654.117c-0.098-0.133-0.198-0.266-0.294-0.402
		c-0.472-0.655-0.925-1.311-1.356-1.96c-0.091-0.137-0.181-0.274-0.271-0.41c-0.425-0.651-0.832-1.294-1.214-1.921
		c-0.07-0.115-0.137-0.228-0.205-0.34c-0.388-0.645-0.758-1.277-1.097-1.879c-0.009-0.018-0.018-0.033-0.027-0.049
		c0.532-0.295,1.048-0.632,1.528-1.043c0.534-0.394,1.952-1.234,3.489-1.587c0.052,0.124,0.09,0.261,0.144,0.384
		c0.314,0.707,0.706,1.367,1.16,1.974c0.641,1.51,3.259,7.384,7.629,13.646c0.451,2.222,0.801,3.587,0.801,3.587
		C438.433,661.721,434.958,657.942,432.155,654.117z M452.061,658.739c-0.136-0.164-0.27-0.33-0.403-0.497
		c-0.519-0.649-1.024-1.305-1.503-1.965c-0.085-0.114-0.165-0.23-0.249-0.348c-0.438-0.61-0.858-1.219-1.261-1.824
		c-0.084-0.125-0.172-0.253-0.255-0.379c-0.434-0.662-0.844-1.314-1.233-1.952c-0.085-0.14-0.17-0.278-0.252-0.417
		c-0.387-0.643-0.757-1.273-1.096-1.872c-0.005-0.012-0.011-0.021-0.016-0.03c0.533-0.295,1.048-0.635,1.528-1.046
		c0.684-0.501,2.813-1.749,4.794-1.749c0.679,0,1.618,0.12,2.855,1.061c0.088,0.066,0.186,0.112,0.274,0.176
		c0.438,0.969,1.109,2.388,2.008,4.095c0.552,8.703,3.291,14.423,3.291,14.423C457.355,664.507,454.506,661.721,452.061,658.739z
		 M466.58,649.455c0.535-0.295,1.051-0.635,1.53-1.046c0.683-0.501,2.813-1.749,4.793-1.749c0.678,0,1.618,0.12,2.855,1.061
		c0.681,0.52,1.427,0.909,2.196,1.227c0.001,10.384,3.377,17.467,3.377,17.467C474.793,662.505,469.655,654.92,466.58,649.455z
		 M472.903,637.271c-6.001,0-10.686,3.828-10.686,3.828c-3.588-8.071,2.19-27.303,2.19-27.303c1.844-6.548,4.767-8.85,7.625-8.85
		c4.589,0,9.006,5.928,8.518,9.744c-2.15,16.844,0.898,25.563,0.898,25.563C478.536,638.035,475.589,637.271,472.903,637.271z
		 M529.986,601.893c-3.642,4.137-5.466,9.365-4.873,13.988c1.146,8.999,0.622,15.244,0.097,18.577
		c-6.65,2.23-13.019,3.427-18.911,3.427c-5.146,0-10.657-0.915-16.4-2.631c-0.556-3.072-1.283-9.595-0.035-19.373
		c0.592-4.623-1.231-9.852-4.873-13.988c-3.542-4.025-8.264-6.33-12.958-6.33c-2.213,0-6.346,0.574-10.158,4.096
		c-3.16-2.62-6.899-4.096-10.63-4.096c-1.66,0-4.401,0.324-7.276,1.966c-3.201-2.725-7.019-4.266-10.828-4.266
		c-1.097,0-2.671,0.146-4.438,0.712c-1.427-1.474-2.845-2.973-4.252-4.506c-19.27-89.897-19.408-149.194-16.016-183.39
		c2.666-26.867,8.18-45.876,14.312-58.212c6.11,2.149,12.672,3.332,19.508,3.332c19.109,0,36.096-9.159,46.872-23.298
		c3.728,14.696,8.256,27.793,9.88,32.335l7.293,20.404l7.294-20.404c1.622-4.542,6.15-17.638,9.876-32.333
		c10.779,14.138,27.766,23.295,46.874,23.295c6.837,0,13.4-1.183,19.51-3.333c6.133,12.338,11.646,31.347,14.312,58.213
		c3.451,34.799,3.244,95.604-17.061,188.193c-2.102-0.814-4.002-1.01-5.268-1.01c-3.81,0-7.626,1.541-10.826,4.266
		c-2.875-1.642-5.617-1.966-7.277-1.966c-3.731,0-7.47,1.476-10.63,4.096c-3.813-3.521-7.946-4.096-10.159-4.096
		C538.25,595.563,533.528,597.867,529.986,601.893z M559.583,611.171c-0.375-1.32-0.806-2.497-1.261-3.606
		c1.529-1.534,3.453-2.617,5.41-2.617c2.857,0,5.78,2.302,7.624,8.85c0,0,5.778,19.231,2.19,27.303c0,0-4.549-3.707-10.421-3.818
		C564.02,627.313,560.848,615.389,559.583,611.171z M533.645,666.414c0,0,3.377-7.083,3.378-17.467
		c0.769-0.317,1.514-0.707,2.194-1.227c1.238-0.94,2.179-1.061,2.855-1.061c1.979,0,4.112,1.248,4.794,1.749
		c0.48,0.411,0.997,0.751,1.53,1.046C545.32,654.92,540.184,662.505,533.645,666.414z M552.759,641.1c0,0-4.685-3.828-10.687-3.828
		c-2.685,0-5.632,0.764-8.544,2.982c0,0,3.047-8.719,0.898-25.563c-0.49-3.816,3.93-9.744,8.517-9.744
		c2.858,0,5.781,2.302,7.625,8.85C550.568,613.797,556.347,633.028,552.759,641.1z M554.432,666.414c0,0,2.74-5.72,3.291-14.423
		c0.899-1.707,1.571-3.126,2.008-4.095c0.09-0.063,0.187-0.109,0.275-0.176c1.237-0.94,2.178-1.061,2.854-1.061
		c1.981,0,4.113,1.248,4.796,1.749c0.479,0.411,0.995,0.751,1.529,1.046C566.107,654.92,560.971,662.505,554.432,666.414z
		 M572.535,664.117c0,0,0.35-1.365,0.8-3.587c4.372-6.263,6.987-12.137,7.63-13.646c0.455-0.606,0.847-1.267,1.16-1.974
		c0.053-0.123,0.09-0.26,0.144-0.384c1.538,0.353,2.955,1.193,3.489,1.587c0.479,0.411,0.995,0.748,1.529,1.043
		C584.211,652.623,579.074,660.207,572.535,664.117z M591.65,638.801c0,0-3.157-2.576-7.605-3.5
		c0.358-9.516-2.495-20.188-3.673-24.13c-0.779-2.748-1.753-5.004-2.835-6.878c1.303-0.996,2.789-1.645,4.299-1.645
		c2.857,0,5.78,2.302,7.623,8.85C589.459,611.498,595.237,630.729,591.65,638.801z"/>
	<g>
		<path fill="#FFFFFF" d="M476.052,284.458c0,11.753-9.527,21.278-21.28,21.278c-11.749,0-21.277-9.529-21.277-21.278
			c0-11.752,9.528-21.28,21.277-21.28C466.525,263.178,476.052,272.705,476.052,284.458z"/>
	</g>
	<g>
		<path fill="#FFFFFF" d="M536.542,284.458c0,11.753,9.533,21.277,21.282,21.277c11.752,0,21.278-9.524,21.278-21.277
			c0-11.752-9.526-21.28-21.278-21.28C546.075,263.178,536.542,272.705,536.542,284.458z"/>
	</g>
</g>
</svg>
